PathFileType	4	(X/Y/Z)	/Users/itak/Documents/Research/Walk-IL/dataset/trc/00434_00167.trc
DataRate	CameraRate	NumFrames	NumMarkers	Units	OrigDataRate	OrigDataStartFrame	OrigNumFrames
100.000000	100.000000	4	53	mm	100.000000	0	724
Frame#	Time	RPSI			LPSI			L3			STRN			T10			C7			CLAV			RBAK			LBAK			LSHO			LUPA			LAEL			LAOL			LWTS			LWPS			LFRA			LIFD			LHPS			LHTS			RSHO			RUPA			RAEL			RAOL			RWTS			RWPS			RFRA			RIFD			RHTS			RHPS			RBHD			LFHD			RFHD			LBHD			LHIP			RHIP			RASI			LASI			LKNE			LTHI			LANK			LTIP			LTOE			LMT1			LMT5			LHEE			RKNE			RTHI			RANK			RTIP			RTOE			RMT1			RMT5			RHEE			
		X1	Y1	Z1	X2	Y2	Z2	X3	Y3	Z3	X4	Y4	Z4	X5	Y5	Z5	X6	Y6	Z6	X7	Y7	Z7	X8	Y8	Z8	X9	Y9	Z9	X10	Y10	Z10	X11	Y11	Z11	X12	Y12	Z12	X13	Y13	Z13	X14	Y14	Z14	X15	Y15	Z15	X16	Y16	Z16	X17	Y17	Z17	X18	Y18	Z18	X19	Y19	Z19	X20	Y20	Z20	X21	Y21	Z21	X22	Y22	Z22	X23	Y23	Z23	X24	Y24	Z24	X25	Y25	Z25	X26	Y26	Z26	X27	Y27	Z27	X28	Y28	Z28	X29	Y29	Z29	X30	Y30	Z30	X31	Y31	Z31	X32	Y32	Z32	X33	Y33	Z33	X34	Y34	Z34	X35	Y35	Z35	X36	Y36	Z36	X37	Y37	Z37	X38	Y38	Z38	X39	Y39	Z39	X40	Y40	Z40	X41	Y41	Z41	X42	Y42	Z42	X43	Y43	Z43	X44	Y44	Z44	X45	Y45	Z45	X46	Y46	Z46	X47	Y47	Z47	X48	Y48	Z48	X49	Y49	Z49	X50	Y50	Z50	X51	Y51	Z51	X52	Y52	Z52	X53	Y53	Z53	

1	0	-1193.01806640625	974.137939453125	-424.6355590820312	-1121.472290039062	971.3114624023438	-546.3472900390625	-1154.245361328125	1065.652709960938	-468.1136169433594	-911.2066650390625	1253.16845703125	-353.8606872558594	-1168.489868164062	1190.10009765625	-482.5521545410156	-1108.655029296875	1457.570190429688	-444.11474609375	-939.149658203125	1367.763305664062	-374.9640502929688	-1212.787719726562	1341.166015625	-387.203125	-1095.371215820312	1410.813842773438	-546.9754028320312	-966.2193603515625	1425.46826171875	-572.2312622070312	-936.7380981445312	1305.789916992188	-665.7164916992188	-901.9671630859375	1092.599975585938	-687.8607788085938	-1001.834533691406	1074.363891601562	-659.104248046875	-829.6779174804688	899.6530151367188	-611.7862548828125	-850.8176879882812	878.5700073242188	-680.0247192382812	-873.8477172851562	1007.036499023438	-686.7893676757812	-812.521728515625	731.4158325195312	-603.6009521484375	-838.947509765625	798.3436279296875	-671.8117065429688	-805.0812377929688	811.365478515625	-609.7656860351562	-1117.200439453125	1426.816040039062	-268.6180114746094	-1166.649169921875	1366.606201171875	-206.6747436523438	-1185.60107421875	1078.455932617188	-152.7459564208984	-1217.295288085938	1060.391235351562	-210.1300811767578	-1067.72265625	882.4202270507812	-148.5069274902344	-1150.442504882812	863.2723999023438	-124.7579650878906	-1184.259033203125	1020.144836425781	-141.8572235107422	-1061.202880859375	723.4638061523438	-140.9645843505859	-1056.9921875	783.62255859375	-127.3968276977539	-1129.401489257812	777.1594848632812	-120.0609588623047	-1061.402099609375	1649.07470703125	-330.2144165039062	-864.8832397460938	1655.02734375	-396.2431030273438	-931.1620483398438	1655.680541992188	-283.3357543945312	-984.8464965820312	1655.11767578125	-490.8662414550781	-947.5341186523438	858.8312377929688	-580.2865600585938	-1164.979736328125	864.3738403320312	-247.4591369628906	-1042.5615234375	903.4198608398438	-245.3031921386719	-901.0339965820312	895.3164672851562	-462.6007385253906	-983.91552734375	436.6382141113281	-545.5764770507812	-943.8709106445312	587.2437133789062	-552.9769897460938	-1047.334838867188	33.71173858642578	-563.0114135742188	-987.2861938476562	287.1069030761719	-552.7453002929688	-885.8307495117188	44.9891471862793	-393.3387756347656	-965.4169311523438	50.54202651977539	-403.6768798828125	-912.1305541992188	46.3632698059082	-503.7275085449219	-1119.0458984375	36.81515121459961	-547.6533203125	-1130.480712890625	466.0162963867188	-277.0717468261719	-1132.332275390625	726.7286987304688	-221.1492004394531	-1142.99560546875	41.06163787841797	-309.8699951171875	-1133.507446289062	319.575927734375	-270.9798889160156	-929.44189453125	48.35685348510742	-264.0216979980469	-971.8993530273438	55.96544647216797	-320.5426635742188	-1032.488159179688	48.28387069702148	-231.4994049072266	-1183.778564453125	33.72068786621094	-380.1048278808594	
2	0.01	-1192.980224609375	974.1246948242188	-424.6898193359375	-1121.400634765625	971.3148193359375	-546.385009765625	-1154.22021484375	1065.651611328125	-468.1380004882812	-911.230712890625	1253.182495117188	-353.8103332519531	-1168.47607421875	1190.088012695312	-482.5869445800781	-1108.67724609375	1457.561889648438	-444.1325378417969	-939.16748046875	1367.778442382812	-374.9370422363281	-1212.7998046875	1341.144653320312	-387.2044982910156	-1095.336791992188	1410.788696289062	-547.005859375	-966.1951293945312	1425.484497070312	-572.2039794921875	-936.546142578125	1305.785522460938	-665.6072998046875	-901.62548828125	1092.586059570312	-687.5218505859375	-1001.579833984375	1074.335205078125	-659.0172729492188	-829.6161499023438	899.5924072265625	-611.322998046875	-850.7504272460938	878.5390625	-679.6478271484375	-873.6342163085938	1006.956115722656	-686.4111328125	-812.5709228515625	731.3357543945312	-603.2025756835938	-838.8809204101562	798.2896728515625	-671.3663940429688	-805.094482421875	811.294677734375	-609.2901000976562	-1117.227905273438	1426.80126953125	-268.6157836914062	-1166.673461914062	1366.59228515625	-206.6752166748047	-1185.68212890625	1078.427124023438	-152.8594512939453	-1217.377685546875	1060.427001953125	-210.2581634521484	-1068.124389648438	882.216064453125	-148.5915832519531	-1150.960205078125	863.1626586914062	-124.924072265625	-1184.446044921875	1020.100830078125	-141.9893188476562	-1061.871337890625	723.1846923828125	-141.4962768554688	-1057.80029296875	783.3485717773438	-127.4176406860352	-1130.023315429688	776.904541015625	-120.553581237793	-1061.808227539062	1649.116088867188	-330.3745422363281	-865.172607421875	1655.360107421875	-396.3878479003906	-931.5025024414062	1655.92578125	-283.4879150390625	-985.201171875	1655.103637695312	-490.9926452636719	-947.5052490234375	858.8538208007812	-580.313232421875	-1164.9912109375	864.364013671875	-247.5369567871094	-1042.6240234375	903.4140014648438	-245.3314819335938	-900.99462890625	895.3283081054688	-462.5606079101562	-983.8443603515625	436.6371765136719	-545.53759765625	-943.8115844726562	587.23291015625	-552.9296875	-1047.349365234375	33.69754791259766	-563.0244750976562	-987.2337036132812	287.0932006835938	-552.7183837890625	-885.8475952148438	45.0042724609375	-393.3397827148438	-965.4268798828125	50.54527282714844	-403.6793518066406	-912.1575317382812	46.37175369262695	-503.7494201660156	-1119.047973632812	36.79904556274414	-547.6635131835938	-1130.353515625	466.0129699707031	-277.0710144042969	-1132.321166992188	726.7383422851562	-221.2073669433594	-1142.99658203125	41.06811141967773	-309.8768920898438	-1133.438842773438	319.5665588378906	-270.9638061523438	-929.440185546875	48.35918426513672	-264.0240478515625	-971.9024658203125	55.96413803100586	-320.5384826660156	-1032.491455078125	48.29118728637695	-231.5111236572266	-1183.778564453125	33.72735214233398	-380.1061096191406	
3	0.02	-1192.93408203125	974.1112670898438	-424.7578430175781	-1121.308227539062	971.3169555664062	-546.4423217773438	-1154.187133789062	1065.652587890625	-468.1695556640625	-911.2608642578125	1253.200561523438	-353.7447509765625	-1168.455200195312	1190.075073242188	-482.6349487304688	-1108.703002929688	1457.553344726562	-444.1470336914062	-939.188720703125	1367.799194335938	-374.8946533203125	-1212.810668945312	1341.118408203125	-387.2041015625	-1095.296752929688	1410.765380859375	-547.0308837890625	-966.1613159179688	1425.512817382812	-572.1609497070312	-936.3180541992188	1305.794677734375	-665.4664306640625	-901.2351684570312	1092.576782226562	-687.1232299804688	-1001.217956542969	1074.279418945312	-658.89013671875	-829.5816040039062	899.5198974609375	-610.74560546875	-850.6505126953125	878.5062866210938	-679.1614379882812	-873.37060546875	1006.876831054688	-685.9458618164062	-812.6373291015625	731.2538452148438	-602.674560546875	-838.80859375	798.2435913085938	-670.8150634765625	-805.1246948242188	811.2158203125	-608.6787719726562	-1117.262451171875	1426.784301757812	-268.6070251464844	-1166.708984375	1366.573852539062	-206.667236328125	-1185.797485351562	1078.394897460938	-152.9913787841797	-1217.48876953125	1060.47119140625	-210.4144592285156	-1068.619018554688	881.9586181640625	-148.7159423828125	-1151.576049804688	863.0200805664062	-125.1409225463867	-1184.681518554688	1020.05029296875	-142.1491394042969	-1062.694213867188	722.838623046875	-142.1572875976562	-1058.32861328125	782.94482421875	-128.1354522705078	-1130.773681640625	776.6044311523438	-121.1664505004883	-1062.308837890625	1649.169311523438	-330.5583801269531	-865.54541015625	1655.764526367188	-396.575439453125	-931.9188842773438	1656.228637695312	-283.6747741699219	-985.6477661132812	1655.090087890625	-491.1481323242188	-947.5111083984375	858.8900146484375	-580.3722534179688	-1165.009033203125	864.3510131835938	-247.6365509033203	-1042.689697265625	903.4104614257812	-245.3674926757812	-900.9423828125	895.3423461914062	-462.5160217285156	-983.7509765625	436.6346130371094	-545.4888305664062	-943.7408447265625	587.2175903320312	-552.8760375976562	-1047.3662109375	33.67913055419922	-563.0407104492188	-987.1712646484375	287.0794067382812	-552.6846313476562	-885.865966796875	45.02393341064453	-393.3421020507812	-965.4398193359375	50.54950714111328	-403.6826171875	-912.1865844726562	46.3812370300293	-503.7773132324219	-1119.051147460938	36.77930450439453	-547.6762084960938	-1130.188598632812	466.0101013183594	-277.0741577148438	-1132.312377929688	726.752197265625	-221.2788391113281	-1142.9970703125	41.07601547241211	-309.8860168457031	-1133.350341796875	319.5555419921875	-270.9433898925781	-929.4384765625	48.36273574829102	-264.0276794433594	-971.9044799804688	55.96323013305664	-320.5348205566406	-1032.494506835938	48.29970550537109	-231.5242309570312	-1183.778076171875	33.73446655273438	-380.1083679199219	
4	0.03	-1192.882202148438	974.0992431640625	-424.8369445800781	-1121.200073242188	971.3164672851562	-546.520263671875	-1154.146362304688	1065.6572265625	-468.2081298828125	-911.2958374023438	1253.221923828125	-353.6653442382812	-1168.426635742188	1190.0625	-482.6956787109375	-1108.730102539062	1457.546142578125	-444.1532287597656	-939.2124633789062	1367.825317382812	-374.8343200683594	-1212.817749023438	1341.088623046875	-387.2008972167969	-1095.254150390625	1410.7490234375	-547.0430908203125	-966.1178588867188	1425.555786132812	-572.099609375	-936.0694580078125	1305.823120117188	-665.2994384765625	-900.83251953125	1092.576171875	-686.6946411132812	-1000.766296386719	1074.19873046875	-658.726806640625	-829.59228515625	899.442138671875	-610.0808715820312	-850.5194091796875	878.4743041992188	-678.5838012695312	-873.0744018554688	1006.810852050781	-685.4193725585938	-812.7327880859375	731.181640625	-602.0303955078125	-838.7351684570312	798.2146606445312	-670.1795654296875	-805.1832885742188	811.138671875	-607.9552612304688	-1117.302856445312	1426.765991210938	-268.5896301269531	-1166.756713867188	1366.550903320312	-206.648193359375	-1185.948974609375	1078.361328125	-153.1319274902344	-1217.6279296875	1060.521118164062	-210.590576171875	-1069.181640625	881.6587524414062	-148.8831176757812	-1152.2490234375	862.850341796875	-125.4029846191406	-1184.956176757812	1019.996704101562	-142.3274993896484	-1063.628173828125	722.445068359375	-142.9133605957031	-1058.6474609375	782.4494018554688	-129.3712463378906	-1131.611206054688	776.2827758789062	-121.8562622070312	-1062.87646484375	1649.23193359375	-330.7503967285156	-865.9901123046875	1656.21630859375	-396.7994079589844	-932.3883666992188	1656.57421875	-283.8864440917969	-986.1682739257812	1655.078979492188	-491.3244323730469	-947.5712280273438	858.9420166015625	-580.4739379882812	-1165.032592773438	864.3350830078125	-247.7549438476562	-1042.747192382812	903.412109375	-245.4097137451172	-900.8779296875	895.3566284179688	-462.4710693359375	-983.6405029296875	436.6294555664062	-545.43408203125	-943.6632080078125	587.197998046875	-552.821533203125	-1047.38330078125	33.65772247314453	-563.0587768554688	-987.1033325195312	287.0670166015625	-552.64599609375	-885.8841552734375	45.04737091064453	-393.3460083007812	-965.455322265625	50.55419921875	-403.6864318847656	-912.215576171875	46.39087677001953	-503.8084106445312	-1119.05517578125	36.75742721557617	-547.6912841796875	-1129.993041992188	466.0081481933594	-277.0823059082031	-1132.307250976562	726.7705688476562	-221.35986328125	-1142.997192382812	41.08447265625	-309.8970031738281	-1133.2451171875	319.5437316894531	-270.91943359375	-929.4371337890625	48.36748123168945	-264.0324096679688	-971.9046020507812	55.96281051635742	-320.5325317382812	-1032.497314453125	48.30851745605469	-231.5370483398438	-1183.77685546875	33.7412109375	-380.1119079589844	
